<svg xmlns="http://www.w3.org/2000/svg" fill="none" viewBox="0 0 301 120"><path fill="#1a1a1a" d="M145.757 76.919c-1.65 1.572-3.565 2.882-5.743 3.798-2.113.917-4.49 1.376-6.999 1.376q-1.98 0-3.763-.393a22 22 0 0 1-3.499-1.113 24.5 24.5 0 0 1-3.169-1.769c-.99-.72-1.915-1.506-2.707-2.357l31.228-11.985 13.27-5.108c-.726-4.584-2.376-8.906-4.885-12.64-5.678-8.513-15.449-14.079-26.475-14.079-17.496 0-31.756 14.146-31.756 31.5 0 1.637.132 3.209.396 4.78.726 4.585 2.377 8.907 4.885 12.64 1.453 2.095 3.103 4.06 5.018 5.763s3.961 3.209 6.272 4.453a30.5 30.5 0 0 0 7.262 2.881c2.575.655 5.216.983 7.989.983 4.357 0 8.583-.851 12.346-2.488 3.83-1.572 7.197-3.93 10.101-6.746 2.906-2.881 5.216-6.221 6.801-10.02.66-1.571 1.188-3.274 1.584-4.977h-14.392a15.8 15.8 0 0 1-3.764 5.501m-12.676-30.78c5.15 0 9.837 2.227 13.139 5.633l-31.229 11.984c.198-9.692 8.253-17.616 18.09-17.616M88.292 69.397 88.225 0H74.414l.066 69.067c0 14.579 9.782 24.936 24.057 25.991v-13.59c-6.014-.989-10.244-5.738-10.244-12.071"/><path fill="#1a1a1a" d="M88.14 69.527 88.072.13H74.261l.066 69.068c0 14.578 9.781 24.935 24.056 25.99v-13.59C92.37 80.61 88.14 75.86 88.14 69.528m146.237-6.496c-.671-16.765-14.814-30.255-32.176-30.255-17.763 0-32.242 14.145-32.242 31.5 0 17.353 14.479 31.5 32.242 31.5 6.838 0 13.206-2.097 18.434-5.698v5.108h13.876l-.134-32.024zm-32.176 19.254c-10.121 0-18.366-8.055-18.366-17.944s8.245-17.944 18.366-17.944 18.367 8.055 18.367 17.944-8.245 17.944-18.367 17.944m68.36-49.867c-16.361 0-29.624 13.213-29.624 29.513v33.42h14.082V61.91c0-8.476 6.897-15.347 15.405-15.347h.273c8.508 0 15.405 6.87 15.405 15.347v33.44h14.082V61.932c0-16.3-13.263-29.513-29.623-29.513M77.831 96.343a55.7 55.7 0 0 1-6.282 7.415 55 55 0 0 1-3.6 3.27 54 54 0 0 1-3.872 2.945 55 55 0 0 1-4.11 2.613 56 56 0 0 1-4.321 2.231 54 54 0 0 1-4.504 1.851 51 51 0 0 1-4.65 1.451c-1.56.417-3.144.769-4.753 1.047a53 53 0 0 1-4.832.623 56 56 0 0 1-9.724 0 53 53 0 0 1-4.832-.623 54 54 0 0 1-4.752-1.047l3.575-13.292c1.171.32 2.367.58 3.575.786q1.796.318 3.636.472a43 43 0 0 0 7.32 0q1.84-.154 3.636-.472a38 38 0 0 0 3.575-.786 39 39 0 0 0 3.503-1.089 39 39 0 0 0 3.387-1.391 40 40 0 0 0 3.254-1.68 41 41 0 0 0 3.101-1.96 42 42 0 0 0 5.627-4.675 41.5 41.5 0 0 0 4.735-5.581zM65.457 32.418l-8.96 11.426a31.54 31.54 0 0 1 7.41 20.348c0 17.53-14.265 31.742-31.861 31.742S.185 81.723.185 64.192s14.265-31.741 31.86-31.741c4.8 0 9.35 1.059 13.432 2.952l9.028-11.51zM32.046 46.083c-10.039 0-18.178 8.108-18.178 18.11 0 10 8.139 18.11 18.178 18.11s18.177-8.11 18.177-18.11c0-10.002-8.138-18.11-18.177-18.11"/></svg>