<svg xmlns="http://www.w3.org/2000/svg" fill="none" viewBox="0 0 3473 546"><path fill="#1a1a1a" d="M817.73 521.818v-385.12c0-13.619 7.533-21.054 21.332-21.054h105.394c13.799 0 21.332 7.435 21.332 21.054v6.198h3.14c18.826-21.666 30.738-33.436 90.962-33.436h43.28c72.15 0 116.07 43.344 116.07 102.169v123.833c0 58.825-43.92 102.155-103.51 102.155h-77.79c-28.87 0-55.213-10.52-67.759-24.152h-1.886v108.353c0 13.619-7.533 21.054-21.333 21.054h-107.9c-13.799 0-21.332-7.435-21.332-21.054m250.31-190.705V215.951c0-21.054-11.29-32.199-32.62-32.199h-34.51c-21.336 0-32.629 11.145-32.629 32.199v115.162c0 21.054 11.293 32.199 32.629 32.199h34.51c21.33 0 32.62-11.145 32.62-32.199M1241.21 341.021c0-54.489 43.28-96.582 104.77-96.582h129.87c14.43 0 25.09-10.52 25.09-24.764v-6.198c0-19.191-10.66-29.725-30.12-29.725h-35.13c-19.45 0-30.12 7.435-30.12 23.527v2.474c0 8.046-4.39 12.382-12.55 12.382h-111.67c-13.8 0-21.33-4.336-21.33-18.58 0-52.627 42.03-94.108 101.63-94.108h188.2c59.61 0 101.64 41.481 101.64 100.306v200.613c0 13.619-7.53 21.054-21.33 21.054h-85.32c-13.8 0-21.33-7.435-21.33-19.817h-1.89c-11.92 12.382-40.14 26.001-85.31 26.001h-91.6c-60.22 0-103.5-42.719-103.5-96.583m259.71 2.474v-17.343c0-10.52-5.64-16.092-16.3-16.092h-68.38c-14.43 0-25.09 10.533-25.09 24.764s10.67 24.764 25.09 24.764h68.38c10.67 0 16.3-5.573 16.3-16.093M1686.63 410.366V136.698c0-13.619 7.54-21.054 21.34-21.054h92.84c13.8 0 21.34 7.435 21.34 21.054v4.336c25.09-24.153 42.03-31.574 69.64-31.574h77.8c48.31 0 81.55 32.81 81.55 80.49v11.145c0 13.619-7.53 21.054-21.33 21.054h-116.69c-8.15 0-12.54-4.336-12.54-12.382v-.626c0-12.382-6.9-19.191-20.7-19.191h-18.2c-17.57 0-24.47 6.809-24.47 31.574v188.842c0 13.619-7.53 21.054-21.33 21.054h-107.9c-13.8 0-21.33-7.435-21.33-21.054zM2051.75 341.021c0-54.489 43.28-96.582 104.77-96.582h129.87c14.43 0 25.09-10.52 25.09-24.764v-6.198c0-19.191-10.66-29.725-30.12-29.725h-35.13c-19.45 0-30.12 7.435-30.12 23.527v2.474c0 8.046-4.39 12.382-12.54 12.382h-111.68c-13.8 0-21.33-4.336-21.33-18.58 0-52.627 42.03-94.108 101.63-94.108h188.21c59.6 0 101.63 41.481 101.63 100.306v200.613c0 13.619-7.53 21.054-21.33 21.054h-85.32c-13.8 0-21.33-7.435-21.33-19.817h-1.89c-11.92 12.382-40.14 26.001-85.31 26.001h-91.6c-60.22 0-103.52-42.719-103.52-96.583zm259.73 2.474v-17.343c0-10.52-5.65-16.092-16.31-16.092h-68.37c-14.44 0-25.09 10.533-25.09 24.764s10.65 24.764 25.09 24.764h68.37c10.68 0 16.31-5.573 16.31-16.093M2497.19 410.366V25.246c0-13.619 7.53-21.053 21.33-21.053h107.9c13.8 0 21.33 7.434 21.33 21.053v385.12c0 13.619-7.53 21.054-21.33 21.054h-107.9c-13.8 0-21.33-7.435-21.33-21.054M2682.87 410.366V25.246c0-13.619 7.53-21.053 21.33-21.053h107.9c13.8 0 21.34 7.434 21.34 21.053v385.12c0 13.619-7.54 21.054-21.34 21.054h-107.9c-13.8 0-21.33-7.435-21.33-21.054M2868.57 336.061V215.326c0-66.246 40.14-105.879 107.28-105.879h196.99c73.4 0 113.54 39.619 113.54 112.063v52.627c0 14.244-10.66 24.764-25.09 24.764h-212.67c-18.83 0-29.49 10.534-29.49 29.1v6.198c0 18.579 10.66 29.1 29.49 29.1h57.71c18.83 0 29.49-10.521 29.49-24.765v-3.71c0-13.619 7.53-21.054 21.33-21.054h107.9c13.8 0 21.33 7.435 21.33 21.054v1.237c0 58.199-43.91 101.543-102.88 101.543h-212.05c-60.22 0-102.88-42.107-102.88-101.543m163.11-102.781h91.59c8.16 0 12.55-4.335 12.55-12.382v-8.671c0-17.955-10.66-28.488-28.87-28.488h-58.97c-18.19 0-28.86 10.52-28.86 28.488v8.671c0 8.047 4.39 12.382 12.54 12.382zM3321.52 410.366V25.246c0-13.619 7.53-21.053 21.33-21.053h107.9c13.8 0 21.33 7.434 21.33 21.053v385.12c0 13.619-7.53 21.054-21.33 21.054h-107.9c-13.8 0-21.33-7.435-21.33-21.054M540.643 213.665H391.3c.399 2.349.726 4.735 1.052 7.121h-237.57c-.435 3.145-.871 6.327-1.234 9.472H3.298c-.726 4.699-1.38 9.435-1.888 14.243H152.17c-.254 3.145-.435 6.326-.617 9.471h244.03c.109 2.35.218 4.736.291 7.122H546.45v-7.592c-.98-13.592-2.903-26.896-5.807-39.837M395.582 291.894h-244.03c.145 3.181.363 6.327.617 9.472H1.41a268 268 0 0 0 1.887 14.243h150.251a270 270 0 0 0 1.234 9.471h237.57c-.326 2.386-.689 4.736-1.052 7.122h149.343c2.904-12.942 4.827-26.245 5.807-39.838v-7.591H395.873c-.073 2.386-.182 4.735-.291 7.121M384.84 363.038H162.222c.799 3.181 1.67 6.326 2.541 9.472H18.795a289 289 0 0 0 6.06 14.243h144.227c1.052 3.181 2.105 6.326 3.23 9.471h202.366a570 570 0 0 1-2.649 7.122h141.795a268.6 268.6 0 0 0 20.36-47.429H386.51c-.545 2.385-1.125 4.735-1.706 7.121zM358.673 434.182H188.425a292 292 0 0 0 4.863 9.472H60.313a307 307 0 0 0 12.303 14.243H201.2a414 414 0 0 0 5.77 9.471h133.194a298 298 0 0 1-4.573 7.122h122.196c15.57-14.135 29.47-30.077 41.446-47.429H362.084c-1.125 2.386-2.214 4.772-3.375 7.121zM312.799 505.29h-78.5a337 337 0 0 0 8.093 9.472h-94.977c37.526 19.449 80.133 30.583 125.318 30.692h1.596c56.834-.181 109.604-17.606 153.263-47.321H318.461c-1.887 2.385-3.774 4.771-5.698 7.121zM234.3 40.576h78.5c1.924 2.35 3.811 4.736 5.698 7.122h109.131C383.933 17.982 331.2.558 274.366.377h-1.596c-45.221.145-87.792 11.243-125.318 30.692h94.977c-2.758 3.109-5.444 6.29-8.093 9.471zM188.426 111.72h170.248a257 257 0 0 1 3.375 7.122h137.149c-11.976-17.352-25.876-33.294-41.446-47.43H335.555a295 295 0 0 1 4.573 7.122H206.935a505 505 0 0 0-5.77 9.472H72.581a242 242 0 0 0-12.304 14.243h132.976a464 464 0 0 0-4.863 9.471zM162.258 182.828h222.618c.581 2.35 1.162 4.736 1.706 7.122h147.674a268.6 268.6 0 0 0-20.36-47.43H372.101c.908 2.35 1.779 4.736 2.65 7.122H172.384a291 291 0 0 0-3.23 9.471H24.928a262 262 0 0 0-6.06 14.244h145.967c-.871 3.145-1.742 6.29-2.54 9.471z"/></svg>